HIERARCHY
ROOT Hips
{
  OFFSET 57.8838 95.319 338.509
  CHANNELS 6 Xposition Yposition Zposition Zrotation Xrotation Yrotation
  JOINT LeftUpLeg
  {
    OFFSET 8.64259 1.95398 -2.38835
    CHANNELS 3 Zrotation Xrotation Yrotation
    JOINT LeftLeg
    {
      OFFSET 43.7702 0 0
      CHANNELS 3 Zrotation Xrotation Yrotation
      JOINT LeftFoot
      {
        OFFSET 40.6238 0 0
        CHANNELS 3 Zrotation Xrotation Yrotation
        JOINT LeftToeBase
        {
          OFFSET 12.7242 0 0
          CHANNELS 3 Zrotation Xrotation Yrotation
          End Site
          {
            OFFSET 0 0 0
          }
        }
      }
    }
  }
  JOINT RightUpLeg
  {
    OFFSET -8.2249 1.95398 -2.59336
    CHANNELS 3 Zrotation Xrotation Yrotation
    JOINT RightLeg
    {
      OFFSET 43.5653 0 0
      CHANNELS 3 Zrotation Xrotation Yrotation
      JOINT RightFoot
      {
        OFFSET 40.6238 0 0
        CHANNELS 3 Zrotation Xrotation Yrotation
        JOINT RightToeBase
        {
          OFFSET 12.7242 0 0
          CHANNELS 3 Zrotation Xrotation Yrotation
          End Site
          {
            OFFSET 0 0 0
          }
        }
      }
    }
  }
  JOINT Spine
  {
    OFFSET 0.165834 0.87714 6.61349
    CHANNELS 3 Zrotation Xrotation Yrotation
    JOINT Spine1
    {
      OFFSET 7.38963 1.71661e-005 0
      CHANNELS 3 Zrotation Xrotation Yrotation
      JOINT Spine2
      {
        OFFSET 11.9445 1.14441e-005 0
        CHANNELS 3 Zrotation Xrotation Yrotation
        JOINT Spine3
        {
          OFFSET 14.7254 4.19617e-005 0
          CHANNELS 3 Zrotation Xrotation Yrotation
          JOINT Spine4
          {
            OFFSET 10.9679 0 0
            CHANNELS 3 Zrotation Xrotation Yrotation
            JOINT RightShoulder
            {
              OFFSET 2.46616 -1.6653 3.69651
              CHANNELS 3 Zrotation Xrotation Yrotation
              JOINT RightArm
              {
                OFFSET 13.0012 0 0
                CHANNELS 3 Zrotation Xrotation Yrotation
                JOINT RightForeArm
                {
                  OFFSET 28.7848 1.62311e-005 0
                  CHANNELS 3 Zrotation Xrotation Yrotation
                  JOINT RightHand
                  {
                    OFFSET 26.5688 1.62095e-005 0
                    CHANNELS 3 Zrotation Xrotation Yrotation
                    End Site
                    {
                      OFFSET 0 0 0
                    }
                  }
                }
              }
            }
            JOINT LeftShoulder
            {
              OFFSET 2.38034 -1.29275 -3.7523
              CHANNELS 3 Zrotation Xrotation Yrotation
              JOINT LeftArm
              {
                OFFSET 16.3182 6.07031e-005 0
                CHANNELS 3 Zrotation Xrotation Yrotation
                JOINT LeftForeArm
                {
                  OFFSET 27.0901 0 0
                  CHANNELS 3 Zrotation Xrotation Yrotation
                  JOINT LeftHand
                  {
                    OFFSET 24.5451 1.51738e-005 0
                    CHANNELS 3 Zrotation Xrotation Yrotation
                    End Site
                    {
                      OFFSET 0 0 0
                    }
                  }
                }
              }
            }
            JOINT Neck
            {
              OFFSET 5.0226 -0.0266342 0
              CHANNELS 3 Zrotation Xrotation Yrotation
              JOINT Head
              {
                OFFSET 6.69364 2.86102e-005 0
                CHANNELS 3 Zrotation Xrotation Yrotation
                End Site
                {
                  OFFSET 0 0 0
                }
              }
            }
          }
        }
      }
    }
  }
}
MOTION
Frames:	13
Frame Time:	0.0416667
-1.45282 97.393 -12.1171 135.9 -83.1042 135.334 -177.088 0.425093 89.5237 -13.2273 3.9683 1.37449 64.3064 2.53985 -0.636544 29.4619 0.211656 1.1946 172.474 -1.33062 90.1922 -14.4164 -3.11717 -0.56596 66.1117 -5.54713 2.49439 30.4529 -2.22601 0.266203 0.180386 6.04091 -89.874 14.7917 0.41944 0.192037 3.12083 0.427488 0.173375 -19.4146 0.342334 0.309215 0.598042 0.342333 0.309209 106.655 -0.036335 -64.6316 35.7164 42.8792 -117.73 11.144 36.4387 -18.9768 -1.22949 0.0207493 -14.7128 -75.2053 -18.2428 103.122 -4.43087 -42.7102 -107.759 -8.43041 -41.5999 -21.9862 5.77669 -0.610552 -11.6669 -3.81385 -3.16852 -0.255838 -20.6882 -1.86583 -7.81179 
-1.37741 97.3882 -12.3109 135.421 -82.9139 134.913 -177.179 0.539307 89.4862 -13.4114 3.99735 1.45703 64.3805 2.54601 -0.691589 29.1815 0.0905623 1.26655 172.454 -1.49398 90.1965 -14.295 -2.9255 -0.522401 66.1508 -5.47225 2.59008 30.3474 -2.08615 0.241375 0.157636 6.10107 -89.8681 14.6714 0.377294 0.210641 3.0005 0.386199 0.193829 -19.5348 0.296543 0.314298 0.477836 0.296547 0.314294 106.6 -0.185912 -64.9283 34.5928 42.5108 -116.277 11.5503 35.9588 -19.4442 -1.63977 0.0603595 -14.9296 -75.3787 -17.2931 102.799 -6.39218 -40.7791 -109.144 -6.38539 -40.5506 -20.1739 4.7564 -0.566725 -11.9972 -3.22726 -3.32429 -1.03247 -20.8295 -2.16924 -6.31783 
-1.30685 97.4109 -12.5018 135.076 -82.6814 134.462 -177.366 0.559644 89.2969 -13.3802 4.2029 1.52551 64.0629 2.49413 -0.534835 29.4433 0.203957 1.19631 172.435 -1.21358 90.101 -14.643 -2.91399 -0.606715 66.107 -5.24469 2.54922 30.3091 -2.03554 0.243603 0.130066 6.15437 -89.8386 14.5647 0.337177 0.275969 2.89378 0.349002 0.260854 -19.6413 0.238651 0.364556 0.371309 0.238654 0.364545 106.594 -1.04455 -65.3956 34.2545 41.5915 -115.864 11.1991 35.7259 -18.9726 0.995291 -0.164863 -15.086 -75.5899 -17.0507 102.31 -6.63581 -39.2444 -109.62 -6.11811 -40.6992 -19.0376 3.79481 -0.511461 -12.181 -2.56441 -3.79625 -1.40342 -20.5127 -2.67095 -5.94163 
-1.26086 97.4305 -12.6919 134.938 -82.5256 134.37 -177.472 0.654821 89.2057 -13.5582 3.63599 1.66078 64.259 2.4284 -1.0317 29.0187 0.0212596 1.28074 172.441 -1.46685 90.095 -14.3552 -2.70254 -0.587066 66.0801 -5.27723 2.50947 30.1304 -1.80004 0.446972 0.0813925 6.19673 -89.8389 14.4801 0.240619 0.289345 2.8091 0.253125 0.278469 -19.7259 0.142535 0.348286 0.286772 0.142529 0.348282 106.382 -1.30803 -66.3214 32.901 40.2542 -113.85 11.5051 35.5535 -19.1716 1.50233 -0.20945 -14.89 -75.7152 -17.1287 102.001 -6.44153 -37.363 -109.681 -6.84719 -41.189 -18.4703 1.98307 -0.377187 -11.8971 -1.58881 -3.89577 -1.18876 -20.2606 -2.81648 -5.80039 
-1.2171 97.447 -12.8465 135.801 -82.4354 135.305 -177.301 0.479558 89.3892 -13.296 4.30956 1.51017 64.0118 2.49319 -0.676257 29.0413 0.0224807 1.42564 172.42 -1.55482 90.0939 -14.3255 -2.89013 -0.535281 65.8899 -5.01899 2.53541 30.1843 -1.86974 0.14018 0.0509231 6.21128 -89.8633 14.4511 0.168238 0.250847 2.78013 0.179115 0.243194 -19.7549 0.0850748 0.289809 0.257787 0.085069 0.289804 106.022 -1.07701 -67.5738 30.7274 38.3384 -110.763 12.6448 37.4023 -19.8075 1.96684 -0.236702 -14.3477 -76.095 -17.909 101.027 -6.16806 -34.8948 -109.371 -6.64818 -39.5669 -16.4859 -0.174634 -0.252375 -12.7448 -0.780728 -3.51652 -0.404322 -20.4653 -2.49008 -5.97613 
-1.21865 97.4557 -13.0376 138.761 -82.405 138.408 -177.142 0.425927 89.541 -13.6003 4.10924 1.50785 64.1718 2.48738 -0.710103 28.8883 -0.0282486 1.20005 172.447 -1.57435 90.2219 -14.404 -3.03705 -0.564705 65.8338 -5.18678 2.5075 30.1517 -1.82816 0.414271 0.0498864 6.28264 -89.8646 14.3084 0.165409 0.248713 2.63741 0.176194 0.241184 -19.8976 0.0830119 0.286929 0.115071 0.0830117 0.286921 105.687 -3.13461 -69.6122 25.342 37.857 -105.967 13.8694 37.284 -21.0487 3.3267 -0.346642 -14.3202 -76.437 -17.2526 100.238 -6.21592 -32.007 -108.145 -6.97103 -37.7912 -15.4983 -1.31932 -0.167237 -12.6737 0.201775 -3.8222 -0.2804 -19.2327 -2.84846 -6.12139 
-1.14746 97.4866 -13.2608 140.315 -82.5232 140.113 -177.146 0.58786 89.5602 -13.739 3.81788 1.5591 64.0664 2.3621 -0.73987 29.2324 0.130554 0.934821 172.386 -1.52861 90.1991 -14.3156 -3.42776 -0.405199 65.6445 -5.03099 2.47548 30.0921 -1.74902 0.371479 0.0603696 6.3106 -89.9191 14.2526 0.159337 0.140208 2.58167 0.165354 0.133055 -19.9535 0.109827 0.18161 0.0591725 0.109832 0.181611 104.942 -4.01352 -72.5338 20.5647 36.7406 -99.6261 16.173 37.3408 -23.7232 3.73205 -0.389833 -14.6265 -76.8442 -18.4392 99.2277 -6.05194 -28.5092 -106.426 -8.66511 -34.7933 -15.9651 -1.12627 -0.178488 -12.4515 0.665472 -3.78332 0.452862 -17.6155 -2.9338 -6.58938 
-1.07066 97.4812 -13.4528 142.122 -82.8473 141.985 -177.144 0.677598 89.5867 -13.5102 3.56385 1.51771 64.0356 2.22701 -0.848097 28.9932 0.0153307 1.20095 172.564 -1.34364 90.2168 -14.2618 -3.72394 -0.489169 65.5925 -4.78906 2.68645 30.0837 -1.73685 0.237578 0.0740675 6.31134 -89.9288 14.2511 0.181758 0.117766 2.58016 0.186757 0.109654 -19.955 0.137957 0.166947 0.0576288 0.13795 0.166947 104.693 -7.02297 -74.0425 16.4586 33.9642 -94.9676 19.9783 36.3946 -28.9095 2.88399 -0.270688 -13.0284 -77.6098 -18.6058 97.4027 -5.94359 -24.9074 -102.607 -12.1423 -33.4439 -18.9962 -1.83374 -0.128889 -12.5094 0.850371 -3.57936 -0.380138 -15.4331 -2.89235 -5.19925 
-0.994434 97.5029 -13.6438 142.225 -82.9326 142.064 -177.199 0.747271 89.4888 -13.387 3.34202 1.48512 64.1502 2.29427 -0.826224 28.3043 -0.269542 1.14822 172.396 -1.1944 90.0347 -14.2766 -3.80847 -0.335381 65.7589 -4.78192 2.61087 29.7296 -1.2717 0.486586 0.059946 6.29678 -89.9584 14.2803 0.139203 0.0640691 2.60936 0.141882 0.0578777 -19.9258 0.113507 0.102938 0.086817 0.113518 0.102947 104.293 -7.80597 -75.4515 16.0383 29.5825 -90.8949 22.6662 34.9992 -33.1363 3.3717 -0.264222 -11.8431 -77.938 -20.7813 96.65 -6.50995 -20.1185 -99.4732 -15.7955 -30.4661 -23.0834 -2.2378 -0.100389 -12.6422 1.78606 -3.10634 0.639625 -15.5252 -2.45074 -6.20537 
-0.907615 97.4976 -13.833 141.733 -83.1581 141.58 -177.316 1.03101 89.394 -13.3257 3.50104 1.46874 63.9292 1.95731 -0.624767 28.4357 -0.218365 1.20547 172.353 -0.536868 89.972 -14.6182 -4.11636 -0.255618 65.7686 -4.72641 2.64832 29.5927 -1.08582 0.231475 0.0652794 6.28898 -89.9582 14.296 0.14986 0.0629307 2.62503 0.152485 0.056273 -19.9102 0.124013 0.10506 0.102477 0.12402 0.105059 103.862 -10.6541 -77.1859 13.5892 26.0298 -85.4147 26.3632 33.4796 -38.941 2.326 -0.179327 -11.0191 -78.0975 -22.9583 96.3461 -6.72214 -15.2921 -95.7253 -20.2858 -28.1317 -28.4393 -2.1479 -0.105312 -12.286 2.83356 -3.32605 -0.300864 -16.308 -2.54628 -5.63199 
-0.849801 97.4935 -13.9732 140.18 -83.1538 140.075 -177.43 1.25435 89.394 -13.2792 3.65476 1.52148 63.812 1.86269 -0.455709 28.3372 -0.237242 0.868785 172.442 -0.338009 90.0539 -14.6353 -3.93824 -0.299348 65.7008 -4.4128 2.7357 29.6667 -1.18611 0.350938 0.0596426 6.3158 -89.9828 14.2423 0.126645 0.0170185 2.57133 0.127278 0.0114229 -19.9639 0.115671 0.054296 0.0487829 0.115676 0.0542941 103.356 -14.1121 -78.8817 11.1332 22.2417 -79.445 28.4172 30.0867 -44.5408 1.49266 -0.119126 -10.0814 -79.5219 -25.0563 93.3566 -6.32096 -11.6616 -88.3957 -25.3641 -25.7943 -35.2095 -0.727195 -0.207438 -12.428 4.73166 -3.71218 -0.854403 -17.6667 -2.74445 -5.675 
-0.810136 97.4909 -14.0623 140.109 -83.2999 139.947 -177.369 1.41441 89.3502 -13.2969 3.73766 1.37091 63.943 1.94427 -0.420412 28.1659 -0.316915 0.993728 172.456 -0.0760845 89.9626 -14.7531 -3.88307 -0.31834 65.7303 -4.47073 2.67608 29.6861 -1.21635 0.618617 0.0240098 6.35859 -89.9749 14.1567 0.0599327 0.042208 2.48571 0.0617357 0.0395173 -20.0494 0.0444759 0.05827 -0.036798 0.0444802 0.058262 102.875 -18.0907 -80.3367 8.79769 17.8663 -73.6939 30.6773 27.0088 -51.0535 0.0352045 -0.0468831 -8.47624 -79.7708 -26.929 92.9642 -7.69984 -6.37748 -82.7102 -26.9672 -21.1764 -39.9242 -0.0197871 -0.251415 -12.1921 7.88753 -4.02344 -0.259752 -19.3086 -2.85222 -7.0387 
-0.77629 97.4955 -14.0846 139.02 -83.4418 138.958 -177.397 1.58828 89.4314 -13.2784 3.77417 1.39434 63.8815 1.78184 -0.460202 28.0177 -0.387793 1.12696 172.486 0.0631852 90.086 -14.6498 -4.11519 -0.238512 65.5909 -4.36988 2.62886 29.7664 -1.31791 0.345067 -0.00980052 6.39657 -89.9886 14.0807 -0.0137862 0.0248018 2.40976 -0.012675 0.0253772 -20.1254 -0.0206045 0.0195159 -0.112726 -0.0206039 0.0195073 102.304 -21.4811 -81.7727 9.25915 12.171 -67.7652 30.7919 23.4079 -56.7899 -1.26999 -0.0264066 -6.95242 -80.1532 -29.9325 92.4099 -7.60157 -1.6153 -76.3753 -29.0454 -17.5279 -44.1895 0.151756 -0.267054 -12.3591 10.1482 -3.96129 -0.461301 -19.7262 -2.86196 -6.02376 
